<svg xmlns="http://www.w3.org/2000/svg" width="96" height="96" viewBox="0 0 96 96"><path d="M0,0H96V96H0Z" fill="none"/><path d="M92,28H76.545a31.263,31.263,0,0,0-10.01-9.8L75.5,10.05,67.745,3,55.81,13.85A36.539,36.539,0,0,0,48,13a35.647,35.647,0,0,0-7.755.85L28.255,3,20.5,10.05l8.91,8.15A31.645,31.645,0,0,0,19.455,28H4V38H15.5a30.258,30.258,0,0,0-.5,5v5H4V58H15v5a30.258,30.258,0,0,0,.5,5H4V78H19.455C25.175,86.95,35.79,93,48,93s22.825-6.05,28.545-15H92V68H80.5a30.258,30.258,0,0,0,.5-5V58H92V48H81V43a30.258,30.258,0,0,0-.5-5H92ZM59,68H37V58H59Zm0-20H37V38H59Z" fill="#fa7c91"/></svg>