<svg xmlns="http://www.w3.org/2000/svg" width="48" height="48" viewBox="0 0 48 48"><path d="M24,0c-6.52,0-7.334.03-9.894.144A17.7,17.7,0,0,0,8.28,1.26,11.753,11.753,0,0,0,4.028,4.028,11.71,11.71,0,0,0,1.26,8.28,17.645,17.645,0,0,0,.144,14.106C.024,16.666,0,17.48,0,24s.03,7.334.144,9.894A17.708,17.708,0,0,0,1.26,39.72a11.77,11.77,0,0,0,2.768,4.252A11.736,11.736,0,0,0,8.28,46.74a17.719,17.719,0,0,0,5.826,1.116c2.56.12,3.374.144,9.894.144s7.334-.03,9.894-.144A17.76,17.76,0,0,0,39.72,46.74a12.265,12.265,0,0,0,7.02-7.02,17.708,17.708,0,0,0,1.116-5.826C47.976,31.334,48,30.52,48,24s-.03-7.334-.144-9.894A17.749,17.749,0,0,0,46.74,8.28a11.779,11.779,0,0,0-2.768-4.252A11.694,11.694,0,0,0,39.72,1.26,17.656,17.656,0,0,0,33.894.144C31.334.024,30.52,0,24,0Zm0,4.32c6.406,0,7.17.032,9.7.142a13.223,13.223,0,0,1,4.454.83A7.9,7.9,0,0,1,42.71,9.846a13.251,13.251,0,0,1,.826,4.454c.114,2.532.14,3.292.14,9.7s-.03,7.17-.148,9.7a13.506,13.506,0,0,1-.842,4.454,7.62,7.62,0,0,1-1.8,2.764,7.487,7.487,0,0,1-2.76,1.792,13.348,13.348,0,0,1-4.47.826c-2.548.114-3.3.14-9.718.14s-7.172-.03-9.718-.148a13.609,13.609,0,0,1-4.472-.842,7.432,7.432,0,0,1-2.758-1.8,7.287,7.287,0,0,1-1.8-2.76,13.62,13.62,0,0,1-.84-4.47c-.09-2.52-.122-3.3-.122-9.688s.032-7.172.122-9.722a13.6,13.6,0,0,1,.84-4.468,7.114,7.114,0,0,1,1.8-2.762,7.1,7.1,0,0,1,2.758-1.8,13.283,13.283,0,0,1,4.442-.842c2.55-.09,3.3-.12,9.718-.12l.09.06Zm0,7.356A12.324,12.324,0,1,0,36.324,24,12.323,12.323,0,0,0,24,11.676ZM24,32a8,8,0,1,1,8-8A8,8,0,0,1,24,32ZM39.692,11.19a2.88,2.88,0,1,1-2.88-2.878A2.882,2.882,0,0,1,39.692,11.19Z" fill="#fa7c91"/></svg>