<?xml version="1.0" standalone="no"?>
<!DOCTYPE svg PUBLIC "-//W3C//DTD SVG 20010904//EN"
 "http://www.w3.org/TR/2001/REC-SVG-20010904/DTD/svg10.dtd">
<svg version="1.0" xmlns="http://www.w3.org/2000/svg"
 width="795.000000pt" height="795.000000pt" viewBox="0 0 795.000000 795.000000"
 preserveAspectRatio="xMidYMid meet">
<metadata>
Created by potrace 1.11, written by Peter Selinger 2001-2013
</metadata>
<g transform="translate(0.000000,795.000000) scale(0.100000,-0.100000)"
fill="#000000" stroke="none">
<path d="M194 7926 c-64 -30 -109 -68 -139 -120 -51 -86 -54 -115 -55 -466 l0
-327 157 1 158 1 1 303 c1 166 4 305 7 308 3 4 142 7 309 8 l303 1 2 158 1
157 -347 0 c-340 -1 -348 -1 -397 -24z"/>
<path d="M7013 7793 l2 -158 303 -1 c166 0 305 -3 308 -6 3 -3 5 -143 5 -310
l1 -305 159 -1 159 -1 0 328 c-1 351 -5 381 -54 465 -29 50 -78 95 -131 121
-37 19 -66 20 -397 23 l-356 3 1 -158z"/>
<path d="M3939 7666 c-2 -2 -67 -6 -144 -10 -77 -3 -176 -10 -220 -16 -121
-15 -168 -22 -185 -25 -8 -2 -62 -13 -119 -24 -221 -45 -505 -132 -656 -202
-22 -10 -53 -23 -68 -29 -16 -5 -27 -14 -25 -19 2 -5 172 -182 380 -393 207
-210 436 -444 508 -518 73 -74 299 -305 503 -514 205 -208 419 -427 477 -486
58 -59 276 -282 485 -495 209 -213 383 -392 386 -397 8 -13 6 -19 64 207 25
99 50 194 56 211 5 17 11 40 13 50 2 10 24 96 49 189 39 144 110 414 123 465
2 8 13 51 25 95 11 44 22 87 24 95 2 8 13 50 25 92 11 43 23 85 25 95 2 10 42
164 90 343 47 179 88 332 90 340 10 46 88 336 91 342 4 5 -93 69 -206 136
-270 159 -707 325 -1015 387 -244 49 -430 71 -629 74 -72 1 -133 4 -137 6 -3
3 -8 3 -10 1z"/>
<path d="M2300 7237 c-79 -41 -172 -95 -222 -129 -31 -21 -60 -38 -63 -38 -9
0 -263 -190 -345 -259 -384 -321 -725 -763 -945 -1226 -133 -280 -243 -609
-291 -872 -4 -23 -7 -37 -24 -133 -5 -30 -12 -82 -15 -115 -3 -33 -8 -68 -11
-77 -7 -22 -1 -22 66 -2 29 9 61 17 69 19 9 2 174 47 366 100 193 53 382 105
420 115 75 20 260 71 840 230 204 56 417 114 475 130 176 47 617 168 750 204
69 19 159 44 200 55 41 11 149 40 240 66 91 25 174 47 185 50 11 3 50 13 87
23 l67 18 -167 171 c-92 94 -329 336 -527 538 -198 202 -413 422 -479 489
-444 453 -644 656 -647 656 -2 0 -15 -6 -29 -13z"/>
<path d="M6025 6647 c-44 -166 -80 -306 -81 -312 -1 -5 -14 -53 -28 -105 -51
-192 -108 -406 -230 -875 -127 -485 -145 -553 -191 -725 -51 -191 -167 -635
-170 -650 -2 -8 -25 -94 -50 -190 -26 -96 -49 -182 -51 -190 -2 -8 -15 -58
-29 -110 -14 -52 -27 -104 -30 -115 -3 -11 -19 -73 -36 -139 -16 -65 -29 -119
-27 -121 2 -1 248 64 548 146 300 83 597 164 660 181 63 17 147 39 185 50 39
11 77 21 85 23 21 5 251 68 415 114 77 21 236 65 354 97 117 32 219 63 225 70
18 17 11 431 -9 574 -2 14 -7 50 -10 80 -35 301 -134 669 -262 974 -208 494
-500 911 -905 1292 -49 46 -208 179 -253 211 l-31 21 -79 -301z"/>
<path d="M2685 4794 c-82 -24 -159 -46 -170 -48 -11 -3 -63 -17 -115 -31 -52
-14 -126 -35 -165 -45 -38 -10 -113 -31 -165 -45 -52 -14 -126 -34 -165 -45
-55 -15 -514 -140 -975 -267 -55 -15 -112 -30 -140 -38 -8 -2 -58 -15 -110
-30 -52 -14 -104 -28 -115 -30 -43 -9 -187 -53 -193 -59 -13 -14 -4 -453 13
-571 2 -16 6 -53 9 -80 5 -45 37 -237 51 -305 18 -89 69 -286 91 -350 3 -8 6
-17 6 -20 2 -11 61 -170 96 -260 54 -139 206 -436 295 -578 176 -279 369 -512
618 -746 100 -95 293 -250 296 -239 5 17 75 279 78 293 2 12 29 116 60 230 2
8 15 58 29 110 13 52 41 158 62 235 20 77 42 163 49 190 7 28 63 241 125 474
61 234 114 432 116 440 3 14 38 149 117 451 50 187 90 341 188 715 54 209 108
412 119 450 18 67 60 234 60 241 0 6 -5 5 -165 -42z"/>
<path d="M7025 3434 c-286 -79 -569 -157 -630 -174 -147 -41 -551 -151 -755
-206 -91 -25 -203 -55 -250 -68 -185 -51 -598 -164 -1142 -312 -241 -65 -438
-121 -438 -124 0 -7 252 -266 1290 -1322 135 -138 307 -313 382 -391 l137
-141 73 38 c40 22 85 47 100 57 14 11 29 19 32 19 3 0 66 40 138 89 408 276
738 609 1013 1023 47 71 85 130 85 132 0 2 20 39 45 81 146 246 286 594 370
915 12 47 65 312 69 350 3 25 8 68 11 95 3 28 8 58 11 68 3 10 0 17 -8 16 -7
-1 -247 -66 -533 -145z"/>
<path d="M2676 3400 c-3 -8 -26 -96 -52 -195 -26 -99 -64 -247 -86 -330 -22
-82 -41 -157 -43 -165 -1 -8 -15 -59 -30 -113 -14 -53 -28 -105 -30 -115 -2
-9 -20 -75 -39 -147 -50 -187 -126 -477 -131 -500 -3 -11 -27 -103 -54 -205
-27 -102 -81 -309 -121 -460 -39 -151 -74 -278 -76 -281 -13 -21 529 -319 579
-319 7 0 17 -4 22 -9 11 -10 221 -87 327 -120 171 -53 430 -109 588 -126 30
-3 71 -8 90 -10 131 -16 461 -21 595 -10 130 11 317 34 395 50 29 6 62 12 104
20 189 36 670 195 710 236 6 5 -50 69 -146 166 -86 87 -205 208 -265 269 -59
61 -275 282 -480 490 -204 209 -435 444 -513 524 -326 333 -900 919 -1112
1134 -156 159 -228 226 -232 216z"/>
<path d="M2 593 l3 -348 26 -55 c35 -74 83 -126 143 -158 l51 -27 356 -3 356
-3 1 160 0 160 -305 0 c-168 0 -308 3 -311 5 -2 3 -5 142 -5 311 l-1 305 -158
0 -159 0 3 -347z"/>
<path d="M7637 932 c-3 -4 -5 -141 -5 -305 0 -164 -2 -301 -5 -303 -2 -3 -142
-5 -311 -5 l-306 0 0 -160 0 -160 358 3 357 3 51 27 c62 33 108 84 143 158
l26 55 3 348 3 347 -155 0 c-85 0 -157 -3 -159 -8z"/>
</g>
</svg>
