<svg xmlns="http://www.w3.org/2000/svg" width="578.486" height="578.488" viewBox="0 0 153.058 153.058" xmlns:v="https://vecta.io/nano"><path d="M31.135 148.7q-.212 0-.275-.212l-3.408-10.33q-.02-.042-.02-.106 0-.2.233-.2h2.16q.233 0 .296.212l2.053 7.07q.02.063.063.063.042 0 .064-.063l2.053-7.07q.064-.212.296-.212l2.16.042q.127 0 .2.085.064.064.02.212l-3.387 10.287q-.064.212-.275.212zm12.317-12.3q-.656 0-1.08-.423-.423-.423-.423-1.08 0-.656.423-1.08.423-.423 1.08-.423.656 0 1.08.423.423.423.423 1.08 0 .656-.423 1.08-.423.423-1.08.423zm-1.016 12.298q-.106 0-.2-.063-.064-.085-.064-.2v-10.33q0-.106.064-.17.085-.085.2-.085h1.947q.106 0 .17.085.085.063.085.17v10.33q0 .106-.085.2-.064.063-.17.063zm14.834-10.562q0-.106.064-.17.085-.085.2-.085h1.947q.106 0 .17.085.085.063.085.17v9.842q0 2.646-1.524 3.768-1.503 1.143-3.958 1.143-.656 0-1.3-.064-.233-.02-.233-.275l.064-1.736q0-.233.296-.233.614.064 1.1.064 1.588 0 2.328-.635.762-.614.762-2.096v-.17q0-.063-.042-.063-.042-.02-.085.02-.868.93-2.455.93-1.376 0-2.52-.7-1.143-.698-1.588-2.138-.275-.995-.275-2.56 0-1.757.34-2.688.423-1.3 1.46-2.053 1.037-.783 2.434-.783 1.672 0 2.603.974.042.064.085.042.042-.02.042-.085zm-.148 6.964q.085-.317.106-.677.042-.38.042-1.207 0-.804-.042-1.143-.02-.36-.127-.698-.17-.7-.698-1.122-.508-.423-1.312-.423-.762 0-1.3.423-.53.423-.762 1.122-.254.593-.254 1.863 0 1.312.212 1.84.212.677.762 1.122.572.423 1.355.423.826 0 1.334-.423.508-.423.677-1.1zm13.5-7.387q1.715 0 2.73 1.016 1.037 1.016 1.037 2.773v6.943q0 .106-.085.2-.064.063-.17.063H72.2q-.106 0-.2-.063-.064-.085-.064-.2v-6.435q0-.974-.55-1.566-.55-.614-1.46-.614-.9 0-1.482.593-.55.593-.55 1.566v6.456q0 .106-.085.2-.064.064-.17.064H65.7q-.106 0-.2-.064-.064-.085-.064-.2v-10.308q0-.106.064-.17.085-.085.2-.085h1.947q.106 0 .17.085.085.063.085.17v.677q0 .064.042.085.042.02.064-.042.868-1.143 2.625-1.143zm18.564 4.36q.085.53.085 1.185l-.02.656q0 .254-.254.254H82.37q-.106 0-.106.106.064.7.2.952.508 1.524 2.477 1.545 1.44 0 2.286-1.185.085-.127.212-.127.085 0 .148.064l1.312 1.08q.2.148.064.34-.656.93-1.757 1.44-1.08.508-2.413.508-1.65 0-2.815-.74-1.143-.74-1.672-2.074-.487-1.143-.487-3.175 0-1.228.254-2 .423-1.482 1.588-2.328 1.185-.868 2.836-.868 4.17 0 4.7 4.36zm-4.7-2.244q-.783 0-1.312.402-.508.38-.72 1.08-.127.36-.17.93-.042.106.085.106h4.297q.106 0 .106-.106-.042-.53-.127-.804-.2-.762-.762-1.185-.55-.423-1.397-.423zm15.733-.21q0 .106-.085.2-.064.064-.17.064h-2.16q-.106 0-.106.106v5.1q0 .804.34 1.164.36.36 1.122.36h.635q.106 0 .17.085.085.063.085.17v1.588q0 .233-.254.275l-1.1.02q-1.672 0-2.498-.572-.826-.57-.847-2.16v-6.032q0-.106-.106-.106H94.04q-.106 0-.2-.063-.064-.085-.064-.2v-1.482q0-.106.064-.17.085-.085.2-.085h1.207q.106 0 .106-.106V135.3q0-.106.064-.17.085-.085.2-.085h1.84q.106 0 .17.085.085.064.085.17v2.476q0 .106.106.106h2.16q.106 0 .17.085.085.063.085.17zm11.07 0q0 .106-.085.2-.064.064-.17.064h-2.16q-.106 0-.106.106v5.1q0 .804.34 1.164.36.36 1.122.36h.635q.106 0 .17.085.085.063.085.17v1.588q0 .233-.254.275l-1.1.02q-1.672 0-2.498-.572-.826-.57-.847-2.16v-6.032q0-.106-.106-.106H105.1q-.106 0-.2-.063-.064-.085-.064-.2v-1.482q0-.106.064-.17.085-.085.2-.085h1.207q.106 0 .106-.106V135.3q0-.106.064-.17.085-.085.2-.085h1.84q.106 0 .17.085.085.064.085.17v2.476q0 .106.106.106h2.16q.106 0 .17.085.085.063.085.17zm14.252 2.455q.085.53.085 1.185l-.02.656q0 .254-.254.254h-6.625q-.106 0-.106.106.064.7.2.952.508 1.524 2.476 1.545 1.44 0 2.286-1.185.085-.127.212-.127.085 0 .148.064l1.312 1.08q.2.148.064.34-.656.93-1.757 1.44-1.08.508-2.413.508-1.65 0-2.815-.74-1.143-.74-1.672-2.074-.487-1.143-.487-3.175 0-1.228.254-2 .423-1.482 1.588-2.328 1.185-.868 2.836-.868 4.17 0 4.7 4.36zm-4.7-2.244q-.783 0-1.312.402-.508.38-.72 1.08-.127.36-.17.93-.042.106.085.106h4.297q.106 0 .106-.106-.042-.53-.127-.804-.2-.762-.762-1.185-.55-.423-1.397-.423z" fill="#916f6f"/><path d="M5.72 0C3.884 0 2.353.982 1.4 2.24.473 3.46 0 4.986 0 6.572V18.06h6.116V6.572c0-.237.065-.346.1-.455h11.83V0zM135 0v6.117h11.83c.046.1.1.218.1.455V18.06h6.116V6.572c0-1.585-.47-3.1-1.398-4.334C150.705.98 149.173 0 147.337 0zM5.72 3.058L15 3.06H5.72c-.615 0-1.385.436-1.825.977.463-.578 1.127-.977 1.825-.977zm132.338 0h9.28c.716 0 1.407.412 1.87 1.014-.434-.56-1.238-1.013-1.87-1.013h-9.28zM0 135v11.486c0 1.587.474 3.1 1.4 4.334.953 1.257 2.484 2.24 4.32 2.24h12.338v-6.117H6.227c-.046-.1-.1-.218-.1-.455V135zm146.94 0v11.486c0 .237-.065.345-.1.455H135v6.117h12.337c1.836 0 3.368-.98 4.322-2.24.928-1.224 1.398-2.748 1.398-4.334V135zm2.253 13.997c-.463.594-1.147 1.003-1.857 1.003h-9.28 9.28c.624 0 1.42-.446 1.857-1.003zm-145.3.036c.442.536 1.206.967 1.814.967h.003c-.693 0-1.352-.396-1.814-.967zM76 4.705a57.69 57.69 0 0 0-23.215 5.141L97.538 55.5l10.818-41.188a58.09 58.09 0 0 0-16.643-7.57A57.57 57.57 0 0 0 76 4.705zm-26.183 6.638c-14.762 7.692-25.645 21.395-29.96 37.723-.77 2.988-1.314 6.033-1.625 9.107l61.114-16.705zM111.1 16.27L94.72 78.6l40.333-11.026c.984-20.124-8.022-39.402-23.964-51.296zM58.336 50.523L18.003 61.548c-.984 20.124 8.022 39.402 23.964 51.297L56.35 58.08zm76.5 20.418L73.7 87.647l29.528 30.124c14.762-7.692 25.645-21.395 29.96-37.723.77-2.988 1.314-6.033 1.625-9.107zM55.52 73.613L44.7 114.8a58.09 58.09 0 0 0 16.643 7.57 57.59 57.59 0 0 0 38.927-3.104L70.213 88.603z" fill="#241c1c"/></svg>