<svg xmlns="http://www.w3.org/2000/svg" xmlns:xlink="http://www.w3.org/1999/xlink" width="3711" height="642.5" viewBox="0 0 981.869 169.995" xmlns:v="https://vecta.io/nano"><g fill="#fff"><path d="M228.816 126.505q-1.66 0-2.16-1.66L199.9 43.775q-.166-.332-.166-.83 0-1.495 1.827-1.495h16.945q1.827 0 2.326 1.66l16.114 55.485q.166.498.498.498.332 0 .498-.498L254.066 43.1q.498-1.66 2.326-1.66l16.945.332q.997 0 1.495.665.498.498.166 1.66l-26.58 80.736q-.498 1.66-2.16 1.66zm96.668-96.518q-5.15 0-8.472-3.323-3.322-3.322-3.322-8.472 0-5.15 3.322-8.472 3.322-3.322 8.472-3.322 5.15 0 8.472 3.322 3.322 3.323 3.322 8.472 0 5.15-3.322 8.472-3.322 3.323-8.472 3.323zm-7.974 96.518q-.83 0-1.495-.498-.498-.665-.498-1.495v-81.07q0-.83.498-1.33.665-.665 1.495-.665h15.283q.83 0 1.33.665.665.498.665 1.33v81.068q0 .83-.665 1.495-.498.498-1.33.498zM433.94 43.6q0-.83.498-1.33.665-.665 1.495-.665h15.283q.83 0 1.33.665.665.498.665 1.33v77.248q0 20.765-11.96 29.57-11.795 8.97-31.065 8.97-5.15 0-10.134-.498-1.827-.166-1.827-2.16l.498-13.622q0-1.827 2.326-1.827 4.818.498 8.638.498 12.46 0 18.274-4.984 5.98-4.818 5.98-16.446v-1.33q0-.498-.332-.498-.332-.166-.665.166-6.8 7.3-19.27 7.3-10.798 0-19.77-5.482-8.97-5.482-12.46-16.78-2.16-7.808-2.16-20.1 0-13.788 2.658-21.098 3.323-10.133 11.463-16.114 8.14-6.147 19.104-6.147 13.124 0 20.433 7.642.332.498.665.332.332-.166.332-.665zm-1.163 54.655q.665-2.492.83-5.316.332-3 .332-9.47 0-6.313-.332-8.97-.166-2.824-.997-5.482-1.33-5.482-5.482-8.805-3.987-3.322-10.3-3.322-5.98 0-10.134 3.322-4.153 3.322-5.98 8.805-1.993 4.65-1.993 14.62 0 10.3 1.66 14.453 1.66 5.316 5.98 8.805 4.485 3.322 10.632 3.322 6.48 0 10.466-3.322 3.987-3.322 5.316-8.638zm105.958-57.98q13.456 0 21.43 7.974 8.14 7.974 8.14 21.762v54.5q0 .83-.665 1.495-.498.498-1.33.498h-15.283q-.83 0-1.495-.498-.498-.665-.498-1.495V74q0-7.642-4.32-12.293-4.32-4.818-11.463-4.818-7.143 0-11.63 4.65-4.32 4.65-4.32 12.293V124.5q0 .83-.665 1.495-.498.498-1.33.498h-15.283q-.83 0-1.495-.498-.498-.665-.498-1.495V43.6q0-.83.498-1.33.665-.665 1.495-.665h15.283q.83 0 1.33.665.665.498.665 1.33v5.316q0 .498.332.665.332.166.498-.332 6.8-8.97 20.6-8.97zm145.693 34.222q.665 4.153.665 9.303l-.166 5.15q0 1.993-1.993 1.993h-51.997q-.83 0-.83.83.498 5.482 1.495 7.476 3.987 11.96 19.436 12.127 11.296 0 17.94-9.303.665-.997 1.66-.997.665 0 1.163.498l10.3 8.472q1.495 1.163.498 2.658-5.15 7.3-13.788 11.296-8.47 3.99-18.936 3.99-12.958 0-22.094-5.814-8.97-5.814-13.124-16.28-3.82-8.97-3.82-24.92 0-9.635 1.993-15.616 3.322-11.63 12.46-18.274 9.303-6.8 22.26-6.8 32.726 0 36.88 34.22zM647.55 56.9q-6.147 0-10.3 3.156-3.987 3-5.648 8.472-.997 2.824-1.33 7.3-.332.83.665.83h33.723q.83 0 .83-.83-.332-4.153-.997-6.313-1.495-5.98-5.98-9.303-4.32-3.322-10.964-3.322z"/><use xlink:href="#B"/><use xlink:href="#B" x="86.89"/><path d="M969.76 74.508q.665 4.153.665 9.303l-.166 5.15q0 1.993-1.993 1.993H916.27q-.83 0-.83.83.498 5.482 1.495 7.476 3.987 11.96 19.436 12.127 11.296 0 17.94-9.303.665-.997 1.66-.997.665 0 1.163.498l10.3 8.472q1.495 1.163.498 2.658-5.15 7.3-13.788 11.296-8.473 3.99-18.938 3.99-12.958 0-22.094-5.814-8.97-5.814-13.124-16.28-3.82-8.97-3.82-24.92 0-9.635 1.993-15.616 3.323-11.63 12.46-18.274 9.303-6.8 22.26-6.8 32.726 0 36.88 34.22zM932.88 56.9q-6.147 0-10.3 3.156-3.987 3-5.648 8.472-.997 2.824-1.33 7.3-.332.83.665.83H950q.83 0 .83-.83-.332-4.153-.997-6.313-1.495-5.98-5.98-9.303-4.32-3.322-10.964-3.322zM14.2 8.465c-1.836 0-3.367.98-4.32 2.24-.927 1.223-1.4 2.747-1.4 4.334v11.486h6.116V15.038c0-.237.065-.346.1-.455h11.83V8.465zm129.28 0v6.117h11.83c.046.1.1.218.1.455v11.486h6.116V15.038c0-1.585-.47-3.1-1.398-4.334-.954-1.26-2.487-2.24-4.322-2.24zM14.2 11.524h0c-.615 0-1.385.436-1.825.977.463-.578 1.127-.977 1.825-.977zm132.338 0h9.28c.716 0 1.407.412 1.87 1.014-.434-.56-1.238-1.013-1.87-1.013h-9.28zM8.47 143.465v11.486c0 1.587.474 3.1 1.4 4.334.953 1.257 2.484 2.24 4.32 2.24h12.34v-6.117H14.7c-.046-.1-.1-.218-.1-.455v-11.486zm146.94 0v11.486c0 .237-.065.345-.1.455h-11.83v6.117h12.337c1.836 0 3.368-.98 4.322-2.24.928-1.224 1.398-2.748 1.398-4.334v-11.486zm2.253 13.997c-.463.594-1.147 1.003-1.857 1.003h-9.28v-.001h9.28c.624 0 1.42-.446 1.857-1.003zm-145.3.036c.442.536 1.206.967 1.814.967l9.28.001h-9.28c-.693 0-1.352-.396-1.814-.967zm72.015-141.84a66.83 66.83 0 0 0-26.895 5.956l51.848 52.894 12.533-47.72c-5.94-3.93-12.446-6.9-19.282-8.77-5.936-1.623-12.06-2.416-18.204-2.36zm-30.335 7.7C36.95 32.26 24.34 48.136 19.342 67.052a70.84 70.84 0 0 0-1.882 10.55L88.264 58.25zm70.988 5.707l-18.964 72.203 46.728-12.774c1.14-23.314-9.294-45.65-27.764-59.43zM63.923 68.74L17.195 81.514c-1.14 23.315 9.294 45.65 27.764 59.43l16.665-63.448zm88.617 23.656L81.736 111.75l34.2 34.9c17.102-8.912 29.712-24.788 34.7-43.704a70.84 70.84 0 0 0 1.882-10.55zM60.66 95.49l-12.533 47.72c5.94 3.93 12.446 6.9 19.282 8.77a66.73 66.73 0 0 0 45.1-3.596L77.683 112.86z"/></g><defs ><path id="B" d="M771.02 55.238q0 .83-.665 1.495-.498.498-1.33.498h-16.945q-.83 0-.83.83v40.036q0 6.313 2.658 9.137 2.824 2.824 8.805 2.824h4.984q.83 0 1.33.665.665.498.665 1.33v12.46q0 1.827-1.993 2.16l-8.638.166q-13.124 0-19.603-4.485-6.48-4.485-6.645-16.945V58.062q0-.83-.83-.83h-9.47q-.83 0-1.495-.498-.498-.665-.498-1.495V43.61q0-.83.498-1.33.665-.665 1.495-.665h9.47q.83 0 .83-.83V21.35q0-.83.498-1.33.665-.665 1.495-.665h14.453q.83 0 1.33.665.665.498.665 1.33v19.436q0 .83.83.83h16.945q.83 0 1.33.665.665.498.665 1.33z"/></defs></svg>